<svg width="139" height="35" viewBox="0 0 139 35" fill="none" xmlns="http://www.w3.org/2000/svg">
<g clip-path="url(#clip0_21_99)">
<path fill-rule="evenodd" clip-rule="evenodd" d="M88.8109 16.8701C88.8109 17.7997 88.953 18.66 89.2379 19.4517C89.5223 20.2432 89.9372 20.9343 90.4821 21.5247C91.0265 22.1151 91.6764 22.5798 92.4321 22.9189C93.1872 23.2582 94.035 23.428 94.9762 23.428C95.9169 23.428 96.7647 23.2582 97.5204 22.9189C98.2754 22.5798 98.9254 22.1151 99.4703 21.5247C100.015 20.9343 100.43 20.2432 100.714 19.4517C100.999 18.66 101.142 17.7997 101.142 16.8701C101.142 15.9408 100.999 15.0799 100.714 14.2882C100.43 13.4968 100.015 12.8062 99.4703 12.2154C98.9254 11.6254 98.2754 11.1601 97.5204 10.821C96.7647 10.4817 95.9169 10.3122 94.9762 10.3122C94.035 10.3122 93.1872 10.4817 92.4321 10.821C91.6764 11.1601 91.0265 11.6254 90.4821 12.2154C89.9372 12.8062 89.5223 13.4968 89.2379 14.2882C88.953 15.0799 88.8109 15.9408 88.8109 16.8701ZM85.9138 8.05083H88.8109V10.6137H88.885C89.6772 9.65908 90.5994 8.91777 91.6521 8.39012C92.7043 7.86246 93.8621 7.59863 95.1248 7.59863C96.4862 7.59863 97.7305 7.83129 98.8574 8.29584C99.984 8.76115 100.943 9.40761 101.736 10.2369C102.528 11.0658 103.147 12.0459 103.593 13.1765C104.039 14.3073 104.262 15.5386 104.262 16.8701C104.262 18.2021 104.039 19.4327 103.593 20.5635C103.147 21.6941 102.534 22.6741 101.754 23.503C100.974 24.3324 100.052 24.9798 98.9876 25.4443C97.9225 25.9087 96.7835 26.1413 95.5704 26.1413C94.0106 26.1413 92.6421 25.796 91.4665 25.105C90.2901 24.4141 89.4296 23.5662 88.885 22.561H88.8109V34.2822H85.9138V8.05083ZM129.888 29.2696C129.584 30.0235 129.275 30.7076 128.959 31.3236C128.643 31.9391 128.264 32.4666 127.822 32.9066C127.379 33.3459 126.848 33.6852 126.23 33.9243C125.61 34.1626 124.858 34.2822 123.974 34.2822C123.544 34.2822 123.096 34.2569 122.628 34.2069C122.16 34.1564 121.724 34.0307 121.32 33.83L121.699 31.2672C122.003 31.3926 122.318 31.4745 122.647 31.5122C122.975 31.5498 123.354 31.5688 123.784 31.5688C124.745 31.5688 125.452 31.3048 125.907 30.7773C126.362 30.2497 126.754 29.5458 127.082 28.6667L128.296 25.35L120.941 7.59863H124.391L129.888 21.4304H129.963L135.233 7.59863H138.455L129.888 29.2696Z" fill="#9E9E9E"/>
<path fill-rule="evenodd" clip-rule="evenodd" d="M6.56012 19.7844C6.86002 20.3752 7.25821 20.8536 7.75451 21.2198C8.25062 21.5865 8.83292 21.8577 9.50271 22.0352C10.1718 22.2122 10.8643 22.3008 11.5799 22.3008C12.0644 22.3008 12.5838 22.2597 13.1376 22.1768C13.6915 22.0942 14.2106 21.9347 14.6954 21.6984C15.18 21.4624 15.5836 21.1374 15.9071 20.7237C16.2299 20.3106 16.3917 19.7844 16.3917 19.1463C16.3917 18.4615 16.178 17.9061 15.7511 17.4805C15.3239 17.0552 14.7645 16.7007 14.0723 16.4171C13.38 16.1337 12.595 15.8856 11.7182 15.673C10.841 15.4603 9.95284 15.2244 9.05277 14.964C8.12943 14.7281 7.22935 14.4385 6.35274 14.0957C5.47537 13.7535 4.6909 13.3104 3.99877 12.7666C3.30626 12.2234 2.7463 11.5438 2.31962 10.7286C1.89221 9.91339 1.67906 8.92705 1.67906 7.76898C1.67906 6.46988 1.9501 5.34135 2.49257 4.38418C3.03466 3.42738 3.74448 2.62973 4.62147 1.9918C5.49846 1.35388 6.49105 0.881387 7.59869 0.573954C8.70633 0.267284 9.81434 0.113281 10.922 0.113281C12.2143 0.113281 13.4547 0.261184 14.6435 0.556419C15.8317 0.852035 16.8878 1.33062 17.8111 1.9918C18.7339 2.65375 19.4668 3.49809 20.0093 4.52598C20.551 5.55368 20.8226 6.80037 20.8226 8.2653H15.5607C15.5143 7.5092 15.3585 6.8829 15.0936 6.38678C14.8278 5.89065 14.4759 5.50069 14.0375 5.21708C13.5991 4.93367 13.0969 4.73316 12.5319 4.61461C11.966 4.49663 11.3488 4.43754 10.6796 4.43754C10.241 4.43754 9.80224 4.48519 9.36421 4.57916C8.92581 4.67388 8.52762 4.83932 8.16982 5.07528C7.81203 5.31181 7.51771 5.60704 7.28725 5.96136C7.05623 6.31587 6.94118 6.76511 6.94118 7.30831C6.94118 7.80463 7.03314 8.20659 7.218 8.51345C7.40229 8.8207 7.76605 9.10431 8.3087 9.36409C8.85042 9.62425 9.60063 9.88404 10.5586 10.1438C11.516 10.404 12.7681 10.7347 14.3147 11.1361C14.776 11.2308 15.4162 11.402 16.2359 11.6501C17.0548 11.8983 17.8683 12.2941 18.6762 12.8375C19.4841 13.3813 20.1824 14.1079 20.7709 15.0172C21.3593 15.9271 21.6534 17.0907 21.6534 18.5085C21.6534 19.6664 21.4339 20.7414 20.9955 21.7338C20.557 22.7263 19.9054 23.583 19.0398 24.3033C18.1745 25.0245 17.1013 25.5856 15.8205 25.9868C14.5398 26.3884 13.0565 26.5895 11.3721 26.5895C10.01 26.5895 8.68939 26.4177 7.40844 26.0754C6.12767 25.7333 4.99658 25.1956 4.0159 24.4628C3.03466 23.7307 2.25577 22.7972 1.67906 21.6627C1.10215 20.5287 0.824963 19.1819 0.848418 17.6223H6.11017C6.11017 18.4729 6.26003 19.1939 6.56012 19.7844ZM35.3184 17.4008C35.1099 17.5893 34.8496 17.7358 34.5366 17.8416C34.224 17.9474 33.888 18.0355 33.5288 18.1061C33.1695 18.1764 32.7931 18.2354 32.3996 18.282C32.0055 18.3296 31.6119 18.388 31.218 18.4585C30.8471 18.529 30.4823 18.6231 30.1235 18.7404C29.764 18.8583 29.4514 19.017 29.1855 19.2165C28.9186 19.4165 28.7043 19.6694 28.5425 19.9744C28.3801 20.2802 28.2992 20.6679 28.2992 21.1379C28.2992 21.5846 28.3801 21.9609 28.5425 22.2661C28.7043 22.5717 28.9248 22.8125 29.2028 22.9888C29.4807 23.1651 29.8049 23.2886 30.1757 23.3591C30.5459 23.4294 30.928 23.4647 31.3225 23.4647C32.2955 23.4647 33.048 23.3005 33.5811 22.9712C34.1137 22.6423 34.5074 22.2483 34.7625 21.7901C35.0172 21.3317 35.1734 20.8679 35.2317 20.3976C35.2893 19.9276 35.3184 19.5515 35.3184 19.2692V17.4008ZM23.9207 13.699C23.9902 12.5239 24.2796 11.5485 24.7894 10.7729C25.2988 9.99732 25.9476 9.37472 26.7354 8.90436C27.5229 8.43457 28.4088 8.09939 29.3938 7.89956C30.3782 7.70031 31.3686 7.59983 32.3648 7.59983C33.2683 7.59983 34.183 7.66486 35.1099 7.79377C36.0362 7.92326 36.8821 8.17617 37.6466 8.55193C38.4111 8.92806 39.0365 9.45075 39.5233 10.1207C40.0095 10.7905 40.2528 11.678 40.2528 12.7823V22.2661C40.2528 23.0891 40.299 23.8763 40.3919 24.6282C40.4844 25.3806 40.6466 25.9447 40.8785 26.3204H35.8744C35.7817 26.0385 35.7062 25.7507 35.6488 25.4567C35.5905 25.163 35.55 24.8633 35.527 24.5576C34.7393 25.3806 33.8125 25.9562 32.747 26.285C31.6813 26.6141 30.5926 26.7786 29.4807 26.7786C28.6234 26.7786 27.8241 26.6728 27.0828 26.4615C26.3413 26.2499 25.6929 25.921 25.137 25.4743C24.5811 25.028 24.1466 24.464 23.834 23.7819C23.5213 23.1005 23.3647 22.2898 23.3647 21.3495C23.3647 20.3153 23.5439 19.4633 23.9035 18.7935C24.2623 18.1237 24.7253 17.5893 25.2932 17.1892C25.8607 16.79 26.5095 16.4902 27.2394 16.2902C27.9691 16.091 28.7043 15.9323 29.4458 15.8144C30.1871 15.697 30.9168 15.6028 31.6351 15.5324C32.3529 15.4617 32.9903 15.3561 33.5462 15.2151C34.1021 15.074 34.5422 14.8685 34.8668 14.598C35.1908 14.3282 35.3414 13.9342 35.3184 13.4171C35.3184 12.8767 35.2317 12.4475 35.0579 12.1302C34.8843 11.8128 34.6524 11.5661 34.363 11.3898C34.073 11.2135 33.7374 11.0962 33.3552 11.0374C32.9729 10.9788 32.5614 10.9492 32.1217 10.9492C31.1489 10.9492 30.384 11.1606 29.8281 11.5838C29.2722 12.0067 28.9474 12.712 28.8551 13.699H23.9207ZM41.7125 11.1595V7.83107H44.6929V6.4295C44.6929 4.81786 45.1952 3.49844 46.2004 2.47049C47.2053 1.44292 48.7251 0.92894 50.7586 0.92894C51.2024 0.92894 51.6467 0.946274 52.0909 0.981506C52.5347 1.01655 52.9674 1.04594 53.3883 1.06893V4.78282C52.8036 4.71273 52.1963 4.67769 51.565 4.67769C50.8868 4.67769 50.4018 4.83539 50.1101 5.15059C49.8175 5.46599 49.6718 5.99767 49.6718 6.7449V7.83107H53.1077V11.1595H49.6718V25.9448H44.6929V11.1595H41.7125ZM58.9557 8.0836V11.4002H59.026C59.2594 10.8475 59.5749 10.3353 59.9725 9.86283C60.3698 9.39113 60.8255 8.9878 61.3399 8.65358C61.8539 8.31992 62.4033 8.06094 62.988 7.87627C63.572 7.69216 64.18 7.59983 64.8113 7.59983C65.1382 7.59983 65.5005 7.65779 65.8981 7.77261V12.333C65.6643 12.2871 65.3836 12.2468 65.0568 12.212C64.7291 12.1775 64.4133 12.1604 64.1099 12.1604C63.1982 12.1604 62.4271 12.3103 61.7958 12.6094C61.1645 12.9089 60.6564 13.3176 60.2706 13.8358C59.885 14.3539 59.6099 14.9586 59.4466 15.6495C59.2828 16.3405 59.2012 17.0893 59.2012 17.8953V25.9448H54.2223V8.0836H58.9557Z" fill="#9E9E9E"/>
<path fill-rule="evenodd" clip-rule="evenodd" d="M116.968 21.9116C116.541 22.3836 116.005 22.7641 115.362 23.049C114.72 23.3367 113.969 23.4783 113.11 23.4783C112.002 23.4783 111.075 23.2486 110.331 22.7886C109.588 22.3288 109.216 21.5507 109.216 20.4544C109.216 19.2607 109.772 18.4005 110.879 17.8795C111.99 17.3557 113.491 17.0953 115.38 17.0953H118.33V18.2161C118.305 18.9363 118.18 19.6139 117.954 20.2505C117.725 20.8838 117.398 21.4394 116.968 21.9116ZM125.534 23.017H121.591C121.42 23.017 121.28 22.8801 121.28 22.7094V14.9667C121.28 12.4786 120.699 10.6241 119.539 9.4044C118.379 8.18643 116.49 7.59863 113.869 7.59863H102.594C103.067 7.9381 103.479 8.293 103.883 8.70401C104.329 9.15775 104.732 9.64972 105.093 10.178H114.813C115.788 10.3288 116.578 10.7276 117.178 11.2331C117.946 11.8819 118.33 12.8395 118.33 14.1079V14.6302H117.195C116.112 14.6302 114.919 14.6805 113.622 14.7808C112.323 14.8814 111.114 15.1297 109.99 15.527C108.871 15.9259 107.93 16.535 107.175 17.3557C106.416 18.1764 106.04 19.3095 106.04 20.7545C106.04 21.5995 106.214 22.3456 106.568 22.9925C106.921 23.6413 107.394 24.1819 107.987 24.6174C108.579 25.0513 109.273 25.3831 110.068 25.6069C110.862 25.8308 111.71 25.9436 112.619 25.9436C113.981 25.9436 115.146 25.6559 116.119 25.0833C117.036 24.5428 117.778 23.8575 118.347 23.0277C118.509 24.6599 119.914 25.9419 121.605 25.9419H126.779L125.534 23.017Z" fill="#9E9E9E"/>
<path fill-rule="evenodd" clip-rule="evenodd" d="M78.6859 17.3996C78.4774 17.5881 78.2169 17.7346 77.9041 17.8404C77.5915 17.9462 77.2553 18.0343 76.8963 18.1049C76.537 18.1752 76.1606 18.2342 75.7669 18.2808C75.373 18.3284 74.9794 18.3868 74.5855 18.4573C74.2146 18.5278 73.8498 18.6219 73.491 18.7392C73.1315 18.8571 72.8189 19.0158 72.5528 19.2153C72.2861 19.4153 72.0718 19.6682 71.91 19.9732C71.7476 20.279 71.6667 20.6667 71.6667 21.1367C71.6667 21.5834 71.7476 21.9597 71.91 22.2649C72.0718 22.5705 72.2921 22.8113 72.5702 22.9876C72.848 23.1639 73.1722 23.2874 73.5432 23.3579C73.9134 23.4282 74.2955 23.4635 74.69 23.4635C75.6628 23.4635 76.4155 23.2993 76.9485 22.97C77.4812 22.6411 77.8748 22.2471 78.13 21.7889C78.3847 21.3305 78.5409 20.8667 78.5992 20.3964C78.6566 19.9264 78.6859 19.5503 78.6859 19.268V17.3996ZM67.288 13.6978C67.3577 12.5227 67.6471 11.5473 68.1569 10.7717C68.6661 9.99613 69.3149 9.37353 70.1028 8.90317C70.8902 8.43338 71.7762 8.09819 72.7613 7.89837C73.7457 7.69911 74.7359 7.59863 75.7321 7.59863C76.6358 7.59863 77.5505 7.66366 78.4774 7.79258C79.4037 7.92206 80.2496 8.17497 81.0141 8.55073C81.7786 8.92687 82.404 9.44955 82.8906 10.1195C83.3771 10.7893 83.6204 11.6768 83.6204 12.7811V22.2649C83.6204 23.0879 83.6665 23.8751 83.7592 24.627C83.8519 25.3794 84.0139 25.9435 84.2458 26.3192H79.2419C79.1492 26.0373 79.0737 25.7495 79.0163 25.4555C78.958 25.1618 78.9173 24.8621 78.8945 24.5565C78.1068 25.3794 77.18 25.955 76.1145 26.2838C75.0488 26.6129 73.9599 26.7774 72.848 26.7774C71.9909 26.7774 71.1916 26.6717 70.4503 26.4603C69.7087 26.2487 69.0602 25.9198 68.5043 25.4731C67.9484 25.0268 67.5139 24.4628 67.2015 23.7807C66.8887 23.0993 66.7321 22.2886 66.7321 21.3483C66.7321 20.3141 66.9114 19.4621 67.271 18.7923C67.6296 18.1225 68.0928 17.5881 68.6607 17.188C69.2282 16.7888 69.877 16.489 70.6069 16.289C71.3365 16.0898 72.0718 15.9311 72.8133 15.8132C73.5546 15.6958 74.2841 15.6016 75.0026 15.5313C75.7204 15.4605 76.3578 15.3549 76.9137 15.2139C77.4696 15.0728 77.9097 14.8673 78.2343 14.5968C78.5583 14.327 78.7089 13.933 78.6859 13.4159C78.6859 12.8755 78.5992 12.4463 78.4254 12.129C78.2517 11.8116 78.0198 11.5649 77.7303 11.3886C77.4403 11.2123 77.1049 11.095 76.7225 11.0362C76.3404 10.9776 75.9289 10.948 75.4892 10.948C74.5162 10.948 73.7515 11.1594 73.1956 11.5826C72.6397 12.0055 72.3147 12.7108 72.2226 13.6978H67.288Z" fill="#9E9E9E"/>
</g>
<defs>
<clipPath id="clip0_21_99">
<rect width="137.608" height="34.1883" fill="white" transform="translate(0.847046 0.0947266)"/>
</clipPath>
</defs>
</svg>
